<svg width="1087.96" height="538.92" version="1.1" xmlns="http://www.w3.org/2000/svg" xmlns:xlink="http://www.w3.org/1999/xlink">
<!-- Generated at Tue Feb  3 18:35:24 2015 by:
  Graph::Easy v0.73
  Graph::Easy::As_svg v0.23
-->

<title>Untitled graph</title>
<defs>
 <!-- open arrow -->
 <g id="ah" stroke-linecap="round" stroke-width="1">
  <line x1="-8" y1="-4" x2="1" y2="0" />
  <line x1="1" y1="0" x2="-8" y2="4" />
 </g>

 <!-- class definitions -->
 <style type="text/css"><![CDATA[
 .edge {
  font-size: 13px;
  stroke: black;
  text-align: center;
 }
 .graph {
  font-size: 16px;
  text-align: center;
 }
 .node {
  font-size: 16px;
  text-align: center;
 }
 ]]></style>
</defs>

<!-- graph background with border (mainly for printing) -->
<rect x="0.5" y="0.5" width="1085.96" height="536.92" fill="white" stroke="white" />

<g id="11" class="edge">
 <!-- from Sim Modules to Report Modules -->
 <!-- vertical -->
 <line x1="101.99" y1="348.84" x2="101.99" y2="407.72" stroke="#000000" />

 <!-- vertical -->
 <line x1="101.99" y1="407.72" x2="101.99" y2="433.72" stroke="#000000" />

 <!-- vertical -->
 <line x1="101.99" y1="433.72" x2="101.99" y2="478.8" stroke="#000000" />
 <use stroke="#000000" xlink:href="#ah" transform="translate(101.99 479.8)rotate(90)"/>
</g>

<g id="2" class="edge">
 <!-- from Main Sim App to Sim Modules -->
 <!-- vertical -->
 <line x1="101.99" y1="59.4" x2="101.99" y2="128.03" stroke="#000000" />
 <use stroke="#000000" xlink:href="#ah" transform="translate(101.99 129.03)rotate(90)"/>
 <text x="107.4" y="95" style="font-family:sans-serif;font-size:12.8px" fill="#000000" stroke="none" text-anchor="start">.CFG file</text>
</g>

<g id="4" class="edge">
 <!-- from Sim Modules to Double Cycle List Generator -->
 <!-- horizontal -->
 <line x1="191.46" y1="179.72" x2="231.78" y2="179.72" stroke="#000000" />

 <!-- horizontal -->
 <line x1="231.78" y1="179.72" x2="411.78" y2="179.72" stroke="#000000" />
 <text x="257.384" y="174" style="font-family:sans-serif;font-size:12.8px" fill="#000000" stroke="none">Sim parameters</text>

 <!-- north/west corner -->
 <g stroke="#000000">
  <line x1="434.18" y1="137.48" x2="434.18" y2="180.22" />
  <line x1="411.78" y1="179.72" x2="434.68" y2="179.72" />
 </g>

 <!-- south/east corner -->
 <g stroke="#000000">
  <line x1="434.18" y1="94.74" x2="434.18" y2="137.48" />
  <line x1="433.68" y1="95.24" x2="451.1" y2="95.24" />
 </g>
 <use stroke="#000000" xlink:href="#ah" x="452.1" y="95.24"/>
</g>

<g id="6" class="edge">
 <!-- from Double Cycle List Generator to Discrete Simulation Setup -->
 <!-- vertical -->
 <line x1="763.27" y1="143.88" x2="763.27" y2="212.51" stroke="#000000" />
 <use stroke="#000000" xlink:href="#ah" transform="translate(763.27 213.51)rotate(90)"/>
 <text x="769.4" y="179" style="font-family:sans-serif;font-size:12.8px" fill="#000000" stroke="none" text-anchor="start">FOB action list</text>
</g>

<g id="8" class="edge">
 <!-- from Discrete Simulation Setup to Run Simulation -->
 <!-- vertical -->
 <line x1="763.27" y1="264.36" x2="763.27" y2="332.99" stroke="#000000" />
 <use stroke="#000000" xlink:href="#ah" transform="translate(763.27 333.99)rotate(90)"/>
 <text x="769.4" y="300" style="font-family:sans-serif;font-size:12.8px" fill="#000000" stroke="none" text-anchor="start">Discrete event simulation environment</text>
</g>

<g id="9" class="edge">
 <!-- from Run Simulation to Sim Modules -->
 <!-- horizontal -->
 <line x1="411.78" y1="375.08" x2="452.1" y2="375.08" stroke="#000000" />

 <!-- horizontal -->
 <line x1="231.78" y1="375.08" x2="411.78" y2="375.08" stroke="#000000" />
 <text x="257.384" y="370" style="font-family:sans-serif;font-size:12.8px" fill="#000000" stroke="none">Sim output arrays</text>

 <!-- north/east corner -->
 <g stroke="#000000">
  <line x1="209.38" y1="342.44" x2="209.38" y2="375.58" />
  <line x1="208.88" y1="375.08" x2="231.78" y2="375.08" />
 </g>

 <!-- south/west corner -->
 <g stroke="#000000">
  <line x1="209.38" y1="299.7" x2="209.38" y2="342.44" />
  <line x1="192.46" y1="300.2" x2="209.88" y2="300.2" />
 </g>
 <use stroke="#000000" xlink:href="#ah" transform="translate(191.46 300.2)rotate(180)"/>
</g>

<g id="0" class="node">
 <!-- Main Sim App, rect -->
 <rect fill="#ffffff" height="35" stroke="#000000" width="168.98" x="17.5" y="17.5" />
 <text x="101" y="41" style="font-family:serif" fill="#000000" text-anchor="middle">Main Sim App</text>
</g>

<g id="1" class="node">
 <!-- Sim Modules, rect -->
 <rect fill="#ffffff" height="203.96" stroke="#000000" width="168.98" x="17.5" y="137.98" />
 <text x="101" y="245" style="font-family:serif" fill="#000000" text-anchor="middle">Sim Modules</text>
</g>

<g id="3" class="node">
 <!-- Double Cycle List Generator, rect -->
 <rect fill="#ffffff" height="83.48" stroke="#000000" width="612.38" x="457.084" y="53.5" />
 <text x="763" y="101" style="font-family:serif" fill="#000000" text-anchor="middle">Double Cycle List Generator</text>
</g>

<g id="5" class="node">
 <!-- Discrete Simulation Setup, rect -->
 <rect fill="#ffffff" height="35" stroke="#000000" width="612.38" x="457.084" y="222.46" />
 <text x="763" y="245" style="font-family:serif" fill="#000000" text-anchor="middle">Discrete Simulation Setup</text>
</g>

<g id="7" class="node">
 <!-- Run Simulation, rect -->
 <rect fill="#ffffff" height="64.28" stroke="#000000" width="612.38" x="457.084" y="342.94" />
 <text x="763" y="381" style="font-family:serif" fill="#000000" text-anchor="middle">Run Simulation</text>
</g>

<g id="10" class="node">
 <!-- Report Modules, rect -->
 <rect fill="#ffffff" height="35" stroke="#000000" width="168.98" x="17.5" y="485.42" />
 <text x="101" y="508" style="font-family:serif" fill="#000000" text-anchor="middle">Report Modules</text>
</g>

</svg>